# xmcd
#
# Track frame offsets: 
#        150
#        15983
#        35290
#        48027
#        63977
#        82039
#        97235
#        112662
#        142209
#        164423
#        184018
#        208967
#
# Disc length: 2960 seconds
#
# Revision: 0
# Processed by: cddbd v1.5.2PL0 Copyright (c) Steve Scherf et al.
# Submitted via: ExactAudioCopy v1.0b1
#
DISCID=9f0b8e0c
DTITLE=Juraj Belković - SREĆA JE GDJE SI TI
DYEAR=2010
DGENRE=Pop
TTITLE0=Dobro jutro
TTITLE1=Upomoć [S.O.S. blues]
TTITLE2=Prvi osnovne
TTITLE3=Idemo na more
TTITLE4=Skupo i besplatno
TTITLE5=Australija
TTITLE6=Sreća je gdje si ti
TTITLE7=Vjera ljude pokreće
TTITLE8=Bolje ikad nego nikad
TTITLE9=Zbog tebe
TTITLE10=Dvije zvijezde
TTITLE11=Henok
EXTD=
EXTT0=
EXTT1=
EXTT2=
EXTT3=
EXTT4=
EXTT5=
EXTT6=
EXTT7=
EXTT8=
EXTT9=
EXTT10=
EXTT11=
PLAYORDER=
